# xmcd
#
# Track frame offsets: 
#        150
#        10227
#        20729
#        29991
#        39755
#        50208
#        60947
#        72146
#        82063
#        90426
#        101764
#        110037
#        122719
#        133555
#        143869
#        154677
#        166370
#        178230
#        186983
#        197980
#
# Disc length: 2760 seconds
#
# Revision: 2
# Processed by: cddbd v1.5.2PL0 Copyright (c) Steve Scherf et al.
# Submitted via: ExactAudioCopy v0.95b2
#
DISCID=220ac614
DTITLE=Conway Twitty - Looking B: The Very Best of the MGM Recordings 
DTITLE=Disc 1
DYEAR=1900
DGENRE=Oldies
TTITLE0=It´s Only Make Believe
TTITLE1=I´ll Try
TTITLE2=I Vibrate
TTITLE3=When I´m Not with You
TTITLE4=The Story of My Love
TTITLE5=Make Me Know You´re Mine
TTITLE6=Mona Lisa
TTITLE7=Sentimental Journey
TTITLE8=Hey Little Lucy
TTITLE9=Heavenly
TTITLE10=Just Because
TTITLE11=Danny Boy
TTITLE12=Hey Miss Ruby
TTITLE13=Lonely Blue Boy
TTITLE14=Blue Moon
TTITLE15=Foggy River
TTITLE16=Trouble in Mind
TTITLE17=Pretty Eyed Baby
TTITLE18=The Hurt in my Heart
TTITLE19=Tell Me One More Time
EXTD=
EXTT0=
EXTT1=
EXTT2=
EXTT3=
EXTT4=
EXTT5=
EXTT6=
EXTT7=
EXTT8=
EXTT9=
EXTT10=
EXTT11=
EXTT12=
EXTT13=
EXTT14=
EXTT15=
EXTT16=
EXTT17=
EXTT18=
EXTT19=
PLAYORDER=
